<?xml version="1.0" encoding="UTF-8"?>
<svg width="32" height="32" viewBox="0 0 32 32" fill="none" xmlns="http://www.w3.org/2000/svg">
  <circle cx="16" cy="16" r="16" fill="#FF6B6B"/>
  <path d="M8 12C8 8.68629 10.6863 6 14 6H18C21.3137 6 24 8.68629 24 12V20C24 23.3137 21.3137 26 18 26H14C10.6863 26 8 23.3137 8 20V12Z" fill="white"/>
  <path d="M12 10C12 8.89543 12.8954 8 14 8H18C19.1046 8 20 8.89543 20 10V22C20 23.1046 19.1046 24 18 24H14C12.8954 24 12 23.1046 12 22V10Z" fill="#FF6B6B"/>
  <rect x="14" y="12" width="4" height="2" rx="1" fill="white"/>
  <rect x="14" y="16" width="4" height="2" rx="1" fill="white"/>
  <rect x="14" y="20" width="4" height="2" rx="1" fill="white"/>
</svg> 